<mxfile host="app.diagrams.net" agent="Mozilla/5.0 (Windows NT 10.0; Win64; x64) AppleWebKit/537.36 (KHTML, like Gecko) Chrome/130.0.0.0 Safari/537.36" version="24.8.6">
  <diagram id="C5RBs43oDa-KdzZeNtuy" name="Page-1">
    <mxGraphModel dx="1434" dy="686" grid="1" gridSize="10" guides="1" tooltips="1" connect="1" arrows="1" fold="1" page="1" pageScale="1" pageWidth="827" pageHeight="1169" math="0" shadow="0">
      <root>
        <mxCell id="WIyWlLk6GJQsqaUBKTNV-0" />
        <mxCell id="WIyWlLk6GJQsqaUBKTNV-1" parent="WIyWlLk6GJQsqaUBKTNV-0" />
        <mxCell id="zgVmap7Su6WPeg_jkg5--4" value="" style="edgeStyle=orthogonalEdgeStyle;rounded=0;orthogonalLoop=1;jettySize=auto;html=1;" edge="1" parent="WIyWlLk6GJQsqaUBKTNV-1" source="zgVmap7Su6WPeg_jkg5--0" target="zgVmap7Su6WPeg_jkg5--1">
          <mxGeometry relative="1" as="geometry" />
        </mxCell>
        <mxCell id="zgVmap7Su6WPeg_jkg5--0" value="begin updateLogic()" style="strokeWidth=2;html=1;shape=mxgraph.flowchart.start_1;whiteSpace=wrap;fillColor=#f8cecc;strokeColor=#b85450;" vertex="1" parent="WIyWlLk6GJQsqaUBKTNV-1">
          <mxGeometry x="72.5" y="50" width="140" height="60" as="geometry" />
        </mxCell>
        <mxCell id="zgVmap7Su6WPeg_jkg5--5" value="" style="edgeStyle=orthogonalEdgeStyle;rounded=0;orthogonalLoop=1;jettySize=auto;html=1;" edge="1" parent="WIyWlLk6GJQsqaUBKTNV-1" source="zgVmap7Su6WPeg_jkg5--1" target="zgVmap7Su6WPeg_jkg5--2">
          <mxGeometry relative="1" as="geometry" />
        </mxCell>
        <mxCell id="zgVmap7Su6WPeg_jkg5--1" value="Logic::updatePlayer()" style="verticalLabelPosition=middle;verticalAlign=middle;html=1;shape=process;whiteSpace=wrap;rounded=1;size=0.14;arcSize=6;labelPosition=center;align=center;fillColor=#b0e3e6;strokeColor=#0e8088;" vertex="1" parent="WIyWlLk6GJQsqaUBKTNV-1">
          <mxGeometry x="57.5" y="150" width="170" height="60" as="geometry" />
        </mxCell>
        <mxCell id="zgVmap7Su6WPeg_jkg5--6" value="" style="edgeStyle=orthogonalEdgeStyle;rounded=0;orthogonalLoop=1;jettySize=auto;html=1;" edge="1" parent="WIyWlLk6GJQsqaUBKTNV-1" source="zgVmap7Su6WPeg_jkg5--2" target="zgVmap7Su6WPeg_jkg5--3">
          <mxGeometry relative="1" as="geometry" />
        </mxCell>
        <mxCell id="zgVmap7Su6WPeg_jkg5--2" value="Logic::updateEnemies()" style="verticalLabelPosition=middle;verticalAlign=middle;html=1;shape=process;whiteSpace=wrap;rounded=1;size=0.14;arcSize=6;labelPosition=center;align=center;fillColor=#b0e3e6;strokeColor=#0e8088;" vertex="1" parent="WIyWlLk6GJQsqaUBKTNV-1">
          <mxGeometry x="50" y="250" width="185" height="60" as="geometry" />
        </mxCell>
        <mxCell id="zgVmap7Su6WPeg_jkg5--3" value="return" style="strokeWidth=2;html=1;shape=mxgraph.flowchart.start_1;whiteSpace=wrap;fillColor=#f8cecc;strokeColor=#b85450;" vertex="1" parent="WIyWlLk6GJQsqaUBKTNV-1">
          <mxGeometry x="92.5" y="350" width="100" height="60" as="geometry" />
        </mxCell>
        <mxCell id="zgVmap7Su6WPeg_jkg5--22" value="" style="edgeStyle=orthogonalEdgeStyle;rounded=0;orthogonalLoop=1;jettySize=auto;html=1;" edge="1" parent="WIyWlLk6GJQsqaUBKTNV-1" source="zgVmap7Su6WPeg_jkg5--7" target="zgVmap7Su6WPeg_jkg5--9">
          <mxGeometry relative="1" as="geometry" />
        </mxCell>
        <mxCell id="zgVmap7Su6WPeg_jkg5--7" value="begin updatePlayer()" style="strokeWidth=2;html=1;shape=mxgraph.flowchart.start_1;whiteSpace=wrap;fillColor=#f8cecc;strokeColor=#b85450;" vertex="1" parent="WIyWlLk6GJQsqaUBKTNV-1">
          <mxGeometry x="395" y="50" width="140" height="60" as="geometry" />
        </mxCell>
        <mxCell id="zgVmap7Su6WPeg_jkg5--21" value="" style="edgeStyle=orthogonalEdgeStyle;rounded=0;orthogonalLoop=1;jettySize=auto;html=1;" edge="1" parent="WIyWlLk6GJQsqaUBKTNV-1" source="zgVmap7Su6WPeg_jkg5--9" target="zgVmap7Su6WPeg_jkg5--11">
          <mxGeometry relative="1" as="geometry" />
        </mxCell>
        <mxCell id="zgVmap7Su6WPeg_jkg5--9" value="InputHandler::processInput()" style="verticalLabelPosition=middle;verticalAlign=middle;html=1;shape=process;whiteSpace=wrap;rounded=1;size=0.14;arcSize=6;labelPosition=center;align=center;fillColor=#b0e3e6;strokeColor=#0e8088;" vertex="1" parent="WIyWlLk6GJQsqaUBKTNV-1">
          <mxGeometry x="330" y="150" width="270" height="60" as="geometry" />
        </mxCell>
        <mxCell id="zgVmap7Su6WPeg_jkg5--18" value="" style="edgeStyle=orthogonalEdgeStyle;rounded=0;orthogonalLoop=1;jettySize=auto;html=1;" edge="1" parent="WIyWlLk6GJQsqaUBKTNV-1" source="zgVmap7Su6WPeg_jkg5--10" target="zgVmap7Su6WPeg_jkg5--14">
          <mxGeometry relative="1" as="geometry" />
        </mxCell>
        <mxCell id="zgVmap7Su6WPeg_jkg5--19" value="Yes" style="edgeLabel;html=1;align=center;verticalAlign=middle;resizable=0;points=[];" vertex="1" connectable="0" parent="zgVmap7Su6WPeg_jkg5--18">
          <mxGeometry relative="1" as="geometry">
            <mxPoint as="offset" />
          </mxGeometry>
        </mxCell>
        <mxCell id="zgVmap7Su6WPeg_jkg5--29" value="" style="edgeStyle=orthogonalEdgeStyle;rounded=0;orthogonalLoop=1;jettySize=auto;html=1;" edge="1" parent="WIyWlLk6GJQsqaUBKTNV-1" source="zgVmap7Su6WPeg_jkg5--10" target="zgVmap7Su6WPeg_jkg5--28">
          <mxGeometry relative="1" as="geometry" />
        </mxCell>
        <mxCell id="zgVmap7Su6WPeg_jkg5--55" value="No" style="edgeLabel;html=1;align=center;verticalAlign=middle;resizable=0;points=[];" vertex="1" connectable="0" parent="zgVmap7Su6WPeg_jkg5--29">
          <mxGeometry x="-0.1429" y="3" relative="1" as="geometry">
            <mxPoint as="offset" />
          </mxGeometry>
        </mxCell>
        <mxCell id="zgVmap7Su6WPeg_jkg5--10" value="Iterate through&lt;div&gt;every game object&lt;/div&gt;" style="verticalLabelPosition=middle;verticalAlign=middle;html=1;shape=hexagon;perimeter=hexagonPerimeter2;arcSize=6;size=0.27;labelPosition=center;align=center;whiteSpace=wrap;fillColor=#fff2cc;strokeColor=#d6b656;" vertex="1" parent="WIyWlLk6GJQsqaUBKTNV-1">
          <mxGeometry x="402.5" y="350" width="125" height="70" as="geometry" />
        </mxCell>
        <mxCell id="zgVmap7Su6WPeg_jkg5--20" value="" style="edgeStyle=orthogonalEdgeStyle;rounded=0;orthogonalLoop=1;jettySize=auto;html=1;" edge="1" parent="WIyWlLk6GJQsqaUBKTNV-1" source="zgVmap7Su6WPeg_jkg5--11" target="zgVmap7Su6WPeg_jkg5--10">
          <mxGeometry relative="1" as="geometry" />
        </mxCell>
        <mxCell id="zgVmap7Su6WPeg_jkg5--11" value="Physics:applyGravity(Game::mainCharacter)" style="verticalLabelPosition=middle;verticalAlign=middle;html=1;shape=process;whiteSpace=wrap;rounded=1;size=0.14;arcSize=6;labelPosition=center;align=center;fillColor=#b0e3e6;strokeColor=#0e8088;" vertex="1" parent="WIyWlLk6GJQsqaUBKTNV-1">
          <mxGeometry x="285" y="250" width="360" height="60" as="geometry" />
        </mxCell>
        <mxCell id="zgVmap7Su6WPeg_jkg5--16" value="" style="edgeStyle=orthogonalEdgeStyle;rounded=0;orthogonalLoop=1;jettySize=auto;html=1;" edge="1" parent="WIyWlLk6GJQsqaUBKTNV-1" source="zgVmap7Su6WPeg_jkg5--13" target="zgVmap7Su6WPeg_jkg5--15">
          <mxGeometry relative="1" as="geometry" />
        </mxCell>
        <mxCell id="zgVmap7Su6WPeg_jkg5--53" value="Yes" style="edgeLabel;html=1;align=center;verticalAlign=middle;resizable=0;points=[];" vertex="1" connectable="0" parent="zgVmap7Su6WPeg_jkg5--16">
          <mxGeometry x="-0.16" y="-2" relative="1" as="geometry">
            <mxPoint as="offset" />
          </mxGeometry>
        </mxCell>
        <mxCell id="zgVmap7Su6WPeg_jkg5--25" style="edgeStyle=orthogonalEdgeStyle;rounded=0;orthogonalLoop=1;jettySize=auto;html=1;entryX=1;entryY=0.5;entryDx=0;entryDy=0;" edge="1" parent="WIyWlLk6GJQsqaUBKTNV-1" source="zgVmap7Su6WPeg_jkg5--13" target="zgVmap7Su6WPeg_jkg5--10">
          <mxGeometry relative="1" as="geometry">
            <Array as="points">
              <mxPoint x="680" y="620" />
              <mxPoint x="680" y="385" />
            </Array>
          </mxGeometry>
        </mxCell>
        <mxCell id="zgVmap7Su6WPeg_jkg5--27" value="No" style="edgeLabel;html=1;align=center;verticalAlign=middle;resizable=0;points=[];" vertex="1" connectable="0" parent="zgVmap7Su6WPeg_jkg5--25">
          <mxGeometry x="-0.9493" y="2" relative="1" as="geometry">
            <mxPoint as="offset" />
          </mxGeometry>
        </mxCell>
        <mxCell id="zgVmap7Su6WPeg_jkg5--13" value="Does the player collide?" style="strokeWidth=2;html=1;shape=mxgraph.flowchart.decision;whiteSpace=wrap;fillColor=#dae8fc;strokeColor=#6c8ebf;" vertex="1" parent="WIyWlLk6GJQsqaUBKTNV-1">
          <mxGeometry x="407.5" y="570" width="115" height="100" as="geometry" />
        </mxCell>
        <mxCell id="zgVmap7Su6WPeg_jkg5--17" value="" style="edgeStyle=orthogonalEdgeStyle;rounded=0;orthogonalLoop=1;jettySize=auto;html=1;" edge="1" parent="WIyWlLk6GJQsqaUBKTNV-1" source="zgVmap7Su6WPeg_jkg5--14" target="zgVmap7Su6WPeg_jkg5--13">
          <mxGeometry relative="1" as="geometry" />
        </mxCell>
        <mxCell id="zgVmap7Su6WPeg_jkg5--14" value="Physics::checkCollision(Game::mainCharacter, game object)" style="verticalLabelPosition=middle;verticalAlign=middle;html=1;shape=process;whiteSpace=wrap;rounded=1;size=0.14;arcSize=6;labelPosition=center;align=center;fillColor=#b0e3e6;strokeColor=#0e8088;" vertex="1" parent="WIyWlLk6GJQsqaUBKTNV-1">
          <mxGeometry x="285" y="460" width="360" height="60" as="geometry" />
        </mxCell>
        <mxCell id="zgVmap7Su6WPeg_jkg5--26" style="edgeStyle=orthogonalEdgeStyle;rounded=0;orthogonalLoop=1;jettySize=auto;html=1;" edge="1" parent="WIyWlLk6GJQsqaUBKTNV-1" source="zgVmap7Su6WPeg_jkg5--15">
          <mxGeometry relative="1" as="geometry">
            <mxPoint x="680" y="620" as="targetPoint" />
          </mxGeometry>
        </mxCell>
        <mxCell id="zgVmap7Su6WPeg_jkg5--15" value="Handle collision" style="rounded=1;whiteSpace=wrap;html=1;absoluteArcSize=1;arcSize=14;strokeWidth=2;fillColor=#ffe6cc;strokeColor=#d79b00;" vertex="1" parent="WIyWlLk6GJQsqaUBKTNV-1">
          <mxGeometry x="415" y="720" width="100" height="50" as="geometry" />
        </mxCell>
        <mxCell id="zgVmap7Su6WPeg_jkg5--28" value="return" style="strokeWidth=2;html=1;shape=mxgraph.flowchart.start_1;whiteSpace=wrap;fillColor=#f8cecc;strokeColor=#b85450;" vertex="1" parent="WIyWlLk6GJQsqaUBKTNV-1">
          <mxGeometry x="250" y="355" width="100" height="60" as="geometry" />
        </mxCell>
        <mxCell id="zgVmap7Su6WPeg_jkg5--45" value="" style="edgeStyle=orthogonalEdgeStyle;rounded=0;orthogonalLoop=1;jettySize=auto;html=1;" edge="1" parent="WIyWlLk6GJQsqaUBKTNV-1" source="zgVmap7Su6WPeg_jkg5--30" target="zgVmap7Su6WPeg_jkg5--31">
          <mxGeometry relative="1" as="geometry" />
        </mxCell>
        <mxCell id="zgVmap7Su6WPeg_jkg5--30" value="begin updateEnemy()" style="strokeWidth=2;html=1;shape=mxgraph.flowchart.start_1;whiteSpace=wrap;fillColor=#f8cecc;strokeColor=#b85450;" vertex="1" parent="WIyWlLk6GJQsqaUBKTNV-1">
          <mxGeometry x="850" y="65" width="140" height="60" as="geometry" />
        </mxCell>
        <mxCell id="zgVmap7Su6WPeg_jkg5--46" value="" style="edgeStyle=orthogonalEdgeStyle;rounded=0;orthogonalLoop=1;jettySize=auto;html=1;" edge="1" parent="WIyWlLk6GJQsqaUBKTNV-1" source="zgVmap7Su6WPeg_jkg5--31" target="zgVmap7Su6WPeg_jkg5--44">
          <mxGeometry relative="1" as="geometry" />
        </mxCell>
        <mxCell id="zgVmap7Su6WPeg_jkg5--51" value="No" style="edgeLabel;html=1;align=center;verticalAlign=middle;resizable=0;points=[];" vertex="1" connectable="0" parent="zgVmap7Su6WPeg_jkg5--46">
          <mxGeometry x="-0.216" y="5" relative="1" as="geometry">
            <mxPoint as="offset" />
          </mxGeometry>
        </mxCell>
        <mxCell id="zgVmap7Su6WPeg_jkg5--47" value="" style="edgeStyle=orthogonalEdgeStyle;rounded=0;orthogonalLoop=1;jettySize=auto;html=1;" edge="1" parent="WIyWlLk6GJQsqaUBKTNV-1" source="zgVmap7Su6WPeg_jkg5--31" target="zgVmap7Su6WPeg_jkg5--35">
          <mxGeometry relative="1" as="geometry" />
        </mxCell>
        <mxCell id="zgVmap7Su6WPeg_jkg5--52" value="Yes" style="edgeLabel;html=1;align=center;verticalAlign=middle;resizable=0;points=[];" vertex="1" connectable="0" parent="zgVmap7Su6WPeg_jkg5--47">
          <mxGeometry x="-0.2" y="2" relative="1" as="geometry">
            <mxPoint as="offset" />
          </mxGeometry>
        </mxCell>
        <mxCell id="zgVmap7Su6WPeg_jkg5--31" value="Iterate through&lt;div&gt;every enemy&lt;/div&gt;" style="verticalLabelPosition=middle;verticalAlign=middle;html=1;shape=hexagon;perimeter=hexagonPerimeter2;arcSize=6;size=0.27;labelPosition=center;align=center;whiteSpace=wrap;fillColor=#fff2cc;strokeColor=#d6b656;" vertex="1" parent="WIyWlLk6GJQsqaUBKTNV-1">
          <mxGeometry x="857.5" y="160" width="125" height="70" as="geometry" />
        </mxCell>
        <mxCell id="zgVmap7Su6WPeg_jkg5--32" value="" style="edgeStyle=orthogonalEdgeStyle;rounded=0;orthogonalLoop=1;jettySize=auto;html=1;" edge="1" parent="WIyWlLk6GJQsqaUBKTNV-1" source="zgVmap7Su6WPeg_jkg5--35" target="zgVmap7Su6WPeg_jkg5--41">
          <mxGeometry relative="1" as="geometry" />
        </mxCell>
        <mxCell id="zgVmap7Su6WPeg_jkg5--33" value="Yes" style="edgeLabel;html=1;align=center;verticalAlign=middle;resizable=0;points=[];" vertex="1" connectable="0" parent="zgVmap7Su6WPeg_jkg5--32">
          <mxGeometry relative="1" as="geometry">
            <mxPoint as="offset" />
          </mxGeometry>
        </mxCell>
        <mxCell id="zgVmap7Su6WPeg_jkg5--48" style="edgeStyle=orthogonalEdgeStyle;rounded=0;orthogonalLoop=1;jettySize=auto;html=1;entryX=0;entryY=0.5;entryDx=0;entryDy=0;" edge="1" parent="WIyWlLk6GJQsqaUBKTNV-1" source="zgVmap7Su6WPeg_jkg5--35" target="zgVmap7Su6WPeg_jkg5--31">
          <mxGeometry relative="1" as="geometry">
            <Array as="points">
              <mxPoint x="805" y="310" />
              <mxPoint x="805" y="195" />
            </Array>
          </mxGeometry>
        </mxCell>
        <mxCell id="zgVmap7Su6WPeg_jkg5--49" value="No" style="edgeLabel;html=1;align=center;verticalAlign=middle;resizable=0;points=[];" vertex="1" connectable="0" parent="zgVmap7Su6WPeg_jkg5--48">
          <mxGeometry x="-0.8318" y="-4" relative="1" as="geometry">
            <mxPoint x="1" as="offset" />
          </mxGeometry>
        </mxCell>
        <mxCell id="zgVmap7Su6WPeg_jkg5--35" value="Iterate through&lt;div&gt;every game object&lt;/div&gt;" style="verticalLabelPosition=middle;verticalAlign=middle;html=1;shape=hexagon;perimeter=hexagonPerimeter2;arcSize=6;size=0.27;labelPosition=center;align=center;whiteSpace=wrap;fillColor=#fff2cc;strokeColor=#d6b656;" vertex="1" parent="WIyWlLk6GJQsqaUBKTNV-1">
          <mxGeometry x="857.5" y="275" width="125" height="70" as="geometry" />
        </mxCell>
        <mxCell id="zgVmap7Su6WPeg_jkg5--36" value="" style="edgeStyle=orthogonalEdgeStyle;rounded=0;orthogonalLoop=1;jettySize=auto;html=1;" edge="1" parent="WIyWlLk6GJQsqaUBKTNV-1" source="zgVmap7Su6WPeg_jkg5--39" target="zgVmap7Su6WPeg_jkg5--43">
          <mxGeometry relative="1" as="geometry" />
        </mxCell>
        <mxCell id="zgVmap7Su6WPeg_jkg5--54" value="Yes" style="edgeLabel;html=1;align=center;verticalAlign=middle;resizable=0;points=[];" vertex="1" connectable="0" parent="zgVmap7Su6WPeg_jkg5--36">
          <mxGeometry x="-0.011" y="-2" relative="1" as="geometry">
            <mxPoint y="1" as="offset" />
          </mxGeometry>
        </mxCell>
        <mxCell id="zgVmap7Su6WPeg_jkg5--37" style="edgeStyle=orthogonalEdgeStyle;rounded=0;orthogonalLoop=1;jettySize=auto;html=1;entryX=1;entryY=0.5;entryDx=0;entryDy=0;" edge="1" parent="WIyWlLk6GJQsqaUBKTNV-1" source="zgVmap7Su6WPeg_jkg5--39" target="zgVmap7Su6WPeg_jkg5--35">
          <mxGeometry relative="1" as="geometry">
            <Array as="points">
              <mxPoint x="1140" y="545" />
              <mxPoint x="1140" y="310" />
            </Array>
          </mxGeometry>
        </mxCell>
        <mxCell id="zgVmap7Su6WPeg_jkg5--38" value="No" style="edgeLabel;html=1;align=center;verticalAlign=middle;resizable=0;points=[];" vertex="1" connectable="0" parent="zgVmap7Su6WPeg_jkg5--37">
          <mxGeometry x="-0.9493" y="2" relative="1" as="geometry">
            <mxPoint as="offset" />
          </mxGeometry>
        </mxCell>
        <mxCell id="zgVmap7Su6WPeg_jkg5--39" value="Does the enemy collide?" style="strokeWidth=2;html=1;shape=mxgraph.flowchart.decision;whiteSpace=wrap;fillColor=#dae8fc;strokeColor=#6c8ebf;" vertex="1" parent="WIyWlLk6GJQsqaUBKTNV-1">
          <mxGeometry x="862.5" y="499.5" width="115" height="100" as="geometry" />
        </mxCell>
        <mxCell id="zgVmap7Su6WPeg_jkg5--40" value="" style="edgeStyle=orthogonalEdgeStyle;rounded=0;orthogonalLoop=1;jettySize=auto;html=1;" edge="1" parent="WIyWlLk6GJQsqaUBKTNV-1" source="zgVmap7Su6WPeg_jkg5--41" target="zgVmap7Su6WPeg_jkg5--39">
          <mxGeometry relative="1" as="geometry" />
        </mxCell>
        <mxCell id="zgVmap7Su6WPeg_jkg5--41" value="Physics::checkCollision(enemy, game object)" style="verticalLabelPosition=middle;verticalAlign=middle;html=1;shape=process;whiteSpace=wrap;rounded=1;size=0.14;arcSize=6;labelPosition=center;align=center;fillColor=#b0e3e6;strokeColor=#0e8088;" vertex="1" parent="WIyWlLk6GJQsqaUBKTNV-1">
          <mxGeometry x="740" y="385" width="360" height="60" as="geometry" />
        </mxCell>
        <mxCell id="zgVmap7Su6WPeg_jkg5--42" style="edgeStyle=orthogonalEdgeStyle;rounded=0;orthogonalLoop=1;jettySize=auto;html=1;" edge="1" parent="WIyWlLk6GJQsqaUBKTNV-1" source="zgVmap7Su6WPeg_jkg5--43">
          <mxGeometry relative="1" as="geometry">
            <mxPoint x="1140" y="545" as="targetPoint" />
          </mxGeometry>
        </mxCell>
        <mxCell id="zgVmap7Su6WPeg_jkg5--43" value="Handle collision" style="rounded=1;whiteSpace=wrap;html=1;absoluteArcSize=1;arcSize=14;strokeWidth=2;fillColor=#ffe6cc;strokeColor=#d79b00;" vertex="1" parent="WIyWlLk6GJQsqaUBKTNV-1">
          <mxGeometry x="870" y="645" width="100" height="50" as="geometry" />
        </mxCell>
        <mxCell id="zgVmap7Su6WPeg_jkg5--44" value="return" style="strokeWidth=2;html=1;shape=mxgraph.flowchart.start_1;whiteSpace=wrap;fillColor=#f8cecc;strokeColor=#b85450;" vertex="1" parent="WIyWlLk6GJQsqaUBKTNV-1">
          <mxGeometry x="1045" y="165" width="100" height="60" as="geometry" />
        </mxCell>
      </root>
    </mxGraphModel>
  </diagram>
</mxfile>
